# xmcd CD database file
#
# Track frame offsets:
#	150
#	14886
#	28637
#	41273
#	59345
#	71205
#	87073
#	104635
#	115263
#	129229
#	142856
#	158059
#	174462
#
# Disc length: 2573 seconds
#
# Revision: 0
# Processed by: cddbd v1.5.2PL0 Copyright (c) Steve Scherf et al.
# Submitted via: ACXtractor (MTCDDB.DLL V2003.12.21)
#
DISCID=ac0a0b0d
DTITLE=Jeff Gibson - Themes of Life
DYEAR=2009
DGENRE=Country
TTITLE0=Black Mountain Brumbies
TTITLE1=Sunset Years of Life
TTITLE2=The Daly Waters Pub
TTITLE3=When we First Fell in Love
TTITLE4=One Small Photograph
TTITLE5=Wayward Son
TTITLE6=The Vanishing Breed
TTITLE7=Happy in my own Skin
TTITLE8=Memories
TTITLE9=Mrs Swaggie Joe
TTITLE10=Where the Mallee Meets the Murray
TTITLE11=When we Both Said I Do
TTITLE12=The Calling Home
EXTD=ID3G:   2 YEAR: 2009
EXTT0=
EXTT1=
EXTT2=
EXTT3=
EXTT4=
EXTT5=
EXTT6=
EXTT7=
EXTT8=
EXTT9=
EXTT10=
EXTT11=
EXTT12=
PLAYORDER=
